<svg aria-hidden="true" style="position: absolute; width: 0; height: 0; overflow: hidden;" version="1.1" xmlns="http://www.w3.org/2000/svg" xmlns:xlink="http://www.w3.org/1999/xlink">
<defs>
<symbol id="icon-location" viewBox="0 0 32 32">
<path d="M25.439 5.449c-1.97-3.412-5.499-5.449-9.439-5.449s-7.469 2.037-9.439 5.449-1.97 7.487 0 10.899l8.835 15.303c0.123 0.21 0.347 0.348 0.603 0.348s0.481-0.139 0.601-0.345l0.002-0.003 8.835-15.303c1.97-3.412 1.97-7.487 0-10.899zM24.232 15.652l-8.232 14.259-8.232-14.259c-1.718-2.976-1.718-6.53 0-9.506s4.796-4.753 8.232-4.753 6.514 1.777 8.232 4.753c1.718 2.976 1.718 6.53 0 9.506z"></path>
<path d="M16 3.020c-4.353 0-7.894 3.541-7.894 7.894s3.541 7.894 7.894 7.894c4.353 0 7.894-3.541 7.894-7.894s-3.541-7.894-7.894-7.894zM12.961 16.659v-0.466c0-1.676 1.363-3.039 3.039-3.039s3.039 1.363 3.039 3.039v0.466c-0.908 0.482-1.942 0.756-3.039 0.756s-2.132-0.274-3.039-0.756zM16 7.886c1.068 0 1.937 0.869 1.937 1.937s-0.869 1.937-1.937 1.937c-1.068 0-1.937-0.869-1.937-1.937s0.869-1.937 1.937-1.937zM20.403 15.692c-0.163-1.439-1.017-2.671-2.222-3.355 0.703-0.611 1.149-1.511 1.149-2.514 0-1.836-1.494-3.33-3.33-3.33s-3.33 1.494-3.33 3.33c0 1.003 0.446 1.903 1.149 2.514-1.205 0.684-2.059 1.916-2.222 3.355-1.289-1.189-2.098-2.89-2.098-4.778 0-3.585 2.916-6.501 6.501-6.501s6.501 2.916 6.501 6.501c0 1.887-0.809 3.589-2.097 4.778z"></path>
</symbol>
<symbol id="icon-phone" viewBox="0 0 32 32">
<path d="M23.506 20.473c-0.68-0.388-1.385-0.511-1.985-0.345-0.45 0.125-0.817 0.41-1.064 0.825-0.545 0.651-1.22 1.411-1.382 1.529-1.265 0.855-2.268 0.754-3.357-0.335l-6.126-6.126c-1.091-1.091-1.191-2.095-0.337-3.356 0.119-0.165 0.88-0.84 1.53-1.384 0.415-0.247 0.7-0.614 0.825-1.065 0.166-0.599 0.043-1.304-0.348-1.99-0.092-0.158-2.288-3.878-4.312-4.948-0.357-0.195-0.782-0.309-1.233-0.309-0.726 0-1.384 0.296-1.858 0.774l-1.353 1.353c-3.947 3.948-3.217 8.852 2.113 14.181l7.843 7.844c2.421 2.421 4.767 3.907 6.97 4.417 0.585 0.135 1.157 0.203 1.72 0.203 1.982 0 3.824-0.839 5.491-2.507l1.353-1.353c0.478-0.474 0.774-1.132 0.774-1.858 0-0.452-0.114-0.876-0.316-1.247l0.007 0.014c-1.071-2.024-4.79-4.22-4.954-4.316zM27.24 27.126l-1.353 1.353c-3.503 3.503-7.767 2.793-12.673-2.113l-7.843-7.844c-4.905-4.905-5.616-9.168-2.113-12.673l1.353-1.353c0.282-0.284 0.673-0.459 1.105-0.459 0.268 0 0.521 0.068 0.741 0.187l-0.008-0.004c1.757 0.93 3.87 4.509 3.888 4.539 0.239 0.42 0.331 0.858 0.244 1.171-0.053 0.192-0.172 0.338-0.365 0.446l-0.080 0.055c-0.455 0.38-1.538 1.298-1.764 1.633-0.326 0.482-0.543 0.956-0.657 1.421-0.379-0.756-0.685-1.632-0.786-2.603-0.031-0.27-0.258-0.478-0.534-0.478-0.018 0-0.037 0.001-0.055 0.003l0.002-0c-0.27 0.030-0.479 0.256-0.479 0.532 0 0.019 0.001 0.038 0.003 0.056l-0-0.002c0.385 3.708 3.27 6.122 3.392 6.223 0.013 0.011 0.029 0.015 0.043 0.025l5.66 5.66c0.024 0.024 0.049 0.045 0.073 0.068 0.019 0.028 0.031 0.058 0.055 0.083 0.101 0.1 2.509 2.436 6.186 2.818 0.011 0.001 0.023 0.001 0.035 0.001 0.295 0 0.534-0.239 0.534-0.534 0-0.269-0.198-0.491-0.456-0.528l-0.003-0c-1.128-0.117-2.127-0.448-2.96-0.831 0.409-0.123 0.824-0.326 1.245-0.612 0.334-0.227 1.253-1.309 1.632-1.764l0.055-0.081c0.108-0.191 0.254-0.311 0.446-0.365 0.312-0.085 0.751 0.004 1.165 0.24 1.002 0.588 3.772 2.432 4.545 3.891 0.116 0.213 0.185 0.466 0.185 0.735 0 0.431-0.176 0.821-0.459 1.103l-0 0zM14.594 0.26c-0.295 0-0.533 0.239-0.533 0.533s0.239 0.533 0.533 0.533v0c9.010 0 16.339 7.33 16.339 16.339 0 0.295 0.239 0.533 0.533 0.533s0.533-0.239 0.533-0.533v0c0-9.598-7.808-17.406-17.406-17.406z"></path>
<path d="M14.594 5.076c6.942 0 12.589 5.648 12.589 12.589 0 0.295 0.239 0.533 0.533 0.533s0.533-0.239 0.533-0.533v0c0-7.53-6.126-13.656-13.656-13.656-0.295 0-0.533 0.239-0.533 0.533s0.239 0.533 0.533 0.533v0z"></path>
<path d="M14.594 8.825c4.875 0 8.84 3.966 8.84 8.84 0 0.295 0.239 0.533 0.533 0.533s0.533-0.239 0.533-0.533v0c0-5.463-4.444-9.907-9.907-9.907-0.295 0-0.533 0.239-0.533 0.533s0.239 0.533 0.533 0.533v0z"></path>
</symbol>
<symbol id="icon-email" viewBox="0 0 32 32">
<path d="M0 4v24h32v-24h-32zM28.61 5.882l-12.61 10.538-12.61-10.538h25.221zM1.882 7.076l10.961 9.159-10.961 9.159v-18.319zM3.953 26.118l10.358-8.656 1.689 1.412 1.689-1.412 10.358 8.656h-24.095zM30.118 25.395l-10.961-9.159 10.961-9.159v18.319z"></path>
</symbol>
<symbol id="icon-linkedin" viewBox="0 0 32 32">
<path d="M27.314 4.686c-3.022-3.022-7.040-4.686-11.314-4.686s-8.292 1.664-11.314 4.686c-3.022 3.022-4.686 7.040-4.686 11.314s1.664 8.292 4.686 11.314c3.022 3.022 7.040 4.686 11.314 4.686s8.292-1.664 11.314-4.686c3.022-3.022 4.686-7.040 4.686-11.314s-1.664-8.292-4.686-11.314zM16 30.989c-8.265 0-14.989-6.724-14.989-14.989s6.724-14.989 14.989-14.989 14.989 6.724 14.989 14.989-6.724 14.989-14.989 14.989z"></path>
<path d="M11.284 12.8h-3.368c-0.279 0-0.505 0.226-0.505 0.505v0 10.105c0 0.279 0.226 0.505 0.505 0.505v0h3.368c0.279 0 0.505-0.226 0.505-0.505v-10.105c0-0 0-0 0-0 0-0.279-0.226-0.505-0.505-0.505-0 0-0 0-0 0v0zM10.779 22.905h-2.358v-9.095h2.358v9.095zM9.263 6.737c-1.393 0-2.526 1.133-2.526 2.526s1.133 2.526 2.526 2.526c1.393 0 2.526-1.133 2.526-2.526s-1.133-2.526-2.526-2.526zM9.263 10.779c-0.836 0-1.516-0.68-1.516-1.516s0.68-1.516 1.516-1.516c0.836 0 1.516 0.68 1.516 1.516s-0.68 1.516-1.516 1.516zM20.716 12.8c-1.003 0-1.992 0.26-2.863 0.744v-0.238c0-0.279-0.226-0.505-0.505-0.505h-2.695c-0.279 0-0.505 0.226-0.505 0.505v0 10.105c0 0.279 0.226 0.505 0.505 0.505v0h3.368c0.279 0 0.505-0.226 0.505-0.505v0-3.628c0-1.188 0.263-2.604 1.516-2.604 0.935 0 1.318 0.789 1.453 1.683 0.037 0.245 0.249 0.425 0.497 0.425 0.311 0 0.545-0.279 0.497-0.586-0.254-1.623-1.114-2.532-2.447-2.532-1.605 0-2.526 1.317-2.526 3.615v3.122h-2.358v-9.095h1.684v0.664c0 0.157 0.065 0.31 0.188 0.407 0.086 0.070 0.197 0.112 0.317 0.112s0.231-0.042 0.317-0.112l-0.001 0.001c0.875-0.702 1.93-1.073 3.052-1.073 2.909 0 4.21 2.453 4.21 4.884v4.21h-2.358v-1.664c0-0 0-0 0-0 0-0.278-0.226-0.504-0.504-0.504h-0.003c-0.278 0-0.504 0.226-0.504 0.504 0 0 0 0 0 0v0 2.169c0 0.279 0.226 0.505 0.505 0.505v0h3.368c0.279 0 0.505-0.226 0.505-0.505v0-4.716c-0-3.471-2.147-5.895-5.221-5.895z"></path>
</symbol>
<symbol id="icon-github" viewBox="0 0 32 32">
<path d="M16 0c-8.836 0-16 7.164-16 16 0 8.837 7.164 16 16 16s16-7.163 16-16c-0-8.836-7.164-16-16-16zM20.482 28.189c-0.092-1.252-0.195-2.803-0.201-3.431-0.040-0.482-0.092-1.708-1.256-2.491 4.621-0.387 6.82-2.941 6.978-6.316 0.132-1.922-0.632-3.612-1.989-4.976 0.069-1.459-0.044-3.188-0.138-3.948-1.042-0.3-3.472 0.983-4.151 1.532-1.432-0.556-4.937-0.751-7.067 0-1.51-1.062-3.229-1.718-4.166-1.535-0.865 1.917-0.309 3.729-0.14 3.945-1.114 1.018-2.668 2.271-2.246 4.896 0.677 3.849 3.385 5.925 7.745 6.433-0.93 0.19-1.087 0.884-1.165 1.185-2.928 1.208-3.765-0.746-4.135-1.255-1.229-1.521-2.332-1.080-2.4-1.056-0.066 0.024-0.116 0.12-0.109 0.166 0.062 0.328 0.731 0.661 0.764 0.688 0.907 0.676 1.243 1.897 1.45 2.245 1.301 2.139 4.325 1.252 4.354 1.27 0.002 0.187-0.021 1.761-0.039 2.986-5.514-1.506-9.571-6.536-9.571-12.527 0-7.18 5.82-13 13-13s13 5.82 13 13c0 5.603-3.55 10.362-8.518 12.189z"></path>
</symbol>
<symbol id="icon-skype" viewBox="0 0 32 32">
<path d="M20.007 13.729l-0.065-0.015c-3.733-0.667-5.922-1.668-5.928-1.668-0.364-0.206-0.803-0.53-0.837-0.9-0.031-0.337 0.276-0.702 0.435-0.851 3.632-1.849 5.24 0.416 5.308 0.514 1.019 1.507 2.061 2.331 3.097 2.452 0.9 0.104 1.445-0.369 1.492-0.413 0.748-0.656 1.128-1.425 1.129-2.282 0.003-1.663-1.483-2.995-1.533-3.040-4.35-4.055-11.119-1.729-11.395-1.63-5.482 1.841-4.341 6.988-4.329 7.039l0.021 0.072c1.623 4.49 8.459 5.073 8.749 5.096 3.267 0.258 3.405 1.82 3.41 1.908 0.118 1.644-2.77 2.132-3.177 2.192-2.851-0.159-3.522-1.27-3.522-1.27l-0.066-0.109c-1.491-1.972-2.072-2.657-3.345-2.689-1.067-0.035-1.69 0.399-2.028 0.764-0.853 0.919-0.743 2.277-0.728 2.428l0.015 0.085c1.256 5.254 8.162 5.198 8.408 5.194 0.403 0.025 0.79 0.036 1.163 0.036 8.648 0 9.241-6.284 9.245-6.339 0.374-3.842-3.446-5.981-5.519-6.575zM24.231 20.192c-0.018 0.23-0.541 5.633-9.083 5.116-0.062-0.002-6.109 0.042-7.159-4.146-0.008-0.172-0.018-0.939 0.389-1.377 0.229-0.247 0.57-0.364 1.040-0.348 0.591 0.015 0.839 0.189 2.313 2.136 0.214 0.368 1.246 1.761 4.648 1.933l0.053 0.003 0.053-0.006c1.706-0.194 4.547-1.166 4.376-3.548-0.002-0.114-0.096-2.792-4.608-3.148-0.062-0.005-6.244-0.528-7.613-4.203-0.088-0.421-0.721-4.062 3.494-5.478 0.063-0.022 6.305-2.171 10.096 1.363 0.31 0.276 1.112 1.19 1.108 2.080-0.002 0.473-0.227 0.899-0.699 1.313-0.001 0.001-0.181 0.12-0.472 0.088-0.362-0.042-1.125-0.343-2.167-1.884-0.023-0.034-2.312-3.375-7.059-0.908l-0.111 0.073c-0.107 0.087-1.044 0.885-0.95 2.002 0.064 0.753 0.565 1.4 1.536 1.949 0.094 0.044 2.339 1.083 6.258 1.787 0.4 0.124 4.903 1.614 4.555 5.203z"></path>
<path d="M31.203 18.784c0.228-1.26 1.183-8.119-3.922-13.136-0.409-0.478-5.054-5.648-13.626-4.48-1.142-0.593-6.587-3.032-11.185 1.621-0.043 0.044-4.196 4.479-1.384 10.192-0.203 0.909-0.721 4.073 0.761 7.954 0.080 0.288 2.044 7.065 9.473 9.28 0.135 0.051 3.299 1.238 7.393 0.872 0.545 0.243 2.242 0.913 4.317 0.913 1.972 0 4.284-0.605 6.278-2.758 0.278-0.282 4.11-4.331 1.894-10.457zM28.378 28.334l-0.016 0.017c-3.853 4.171-9.018 1.605-9.236 1.493l-0.172-0.088-0.19 0.019c-3.86 0.384-6.948-0.764-7.024-0.792-6.77-2.019-8.621-8.335-8.658-8.454-1.582-4.148-0.69-7.415-0.681-7.447l0.072-0.25-0.12-0.23c-2.594-4.977 0.908-8.755 1.050-8.906 4.4-4.454 9.576-1.428 9.793-1.298l0.2 0.122 0.232-0.034c8.184-1.208 12.497 3.808 12.676 4.021l0.046 0.049c5.025 4.916 3.56 12.073 3.544 12.145l-0.040 0.188 0.068 0.179c2.083 5.511-1.395 9.114-1.544 9.265z"></path>
</symbol>
</defs>
</svg>
